<svg width="622" height="96" viewBox="0 0 622 96" fill="none" xmlns="http://www.w3.org/2000/svg">
<path d="M40.3125 45.5156V32.0625C40.3125 30.2188 39.9531 28.4844 39.2344 26.8594C38.5469 25.2031 37.5938 23.7656 36.375 22.5469C35.1562 21.3281 33.7188 20.375 32.0625 19.6875C30.4375 18.9688 28.7031 18.6094 26.8594 18.6094C25.0156 18.6094 23.2656 18.9688 21.6094 19.6875C19.9844 20.375 18.5625 21.3281 17.3438 22.5469C16.125 23.7656 15.1562 25.2031 14.4375 26.8594C13.75 28.4844 13.4062 30.2188 13.4062 32.0625V45.5156H40.3125ZM53.7656 72.375H40.3125V58.9219H13.4062V72.375H0V32.0625C0 28.3438 0.703125 24.8594 2.10938 21.6094C3.51562 18.3281 5.42188 15.4688 7.82812 13.0312C10.2656 10.5938 13.1094 8.67188 16.3594 7.26562C19.6406 5.85938 23.1406 5.15625 26.8594 5.15625C30.5781 5.15625 34.0625 5.85938 37.3125 7.26562C40.5938 8.67188 43.4531 10.5938 45.8906 13.0312C48.3281 15.4688 50.25 18.3281 51.6562 21.6094C53.0625 24.8594 53.7656 28.3438 53.7656 32.0625V72.375Z" fill="#9E7BA3"/>
<path d="M107.484 32.1562L98.1094 41.5781C97.6406 40.2656 97 39.0938 96.1875 38.0625C95.375 37 94.4531 36.1094 93.4219 35.3906C92.4219 34.6719 91.3281 34.125 90.1406 33.75C88.9531 33.375 87.7344 33.1875 86.4844 33.1875C84.7344 33.1875 83.0781 33.5469 81.5156 34.2656C79.9844 34.9844 78.6406 36 77.4844 37.3125C76.3594 38.5938 75.4688 40.125 74.8125 41.9062C74.1562 43.6875 73.8281 45.6562 73.8281 47.8125C73.8281 49.5625 74.1562 51.2031 74.8125 52.7344C75.4688 54.2656 76.3594 55.6094 77.4844 56.7656C78.6406 57.9219 79.9844 58.8281 81.5156 59.4844C83.0781 60.1406 84.7344 60.4688 86.4844 60.4688C87.7344 60.4688 88.9375 60.2969 90.0938 59.9531C91.25 59.6094 92.3281 59.125 93.3281 58.5C94.3594 57.8438 95.2656 57.0625 96.0469 56.1562C96.8594 55.2188 97.5156 54.1875 98.0156 53.0625L107.391 62.4844C106.203 64.1719 104.828 65.6875 103.266 67.0312C101.734 68.375 100.062 69.5156 98.25 70.4531C96.4688 71.3906 94.5781 72.0938 92.5781 72.5625C90.6094 73.0625 88.5781 73.3125 86.4844 73.3125C82.9531 73.3125 79.625 72.6562 76.5 71.3438C73.4062 70 70.6875 68.1719 68.3438 65.8594C66.0312 63.5469 64.2031 60.8438 62.8594 57.75C61.5156 54.6562 60.8438 51.3438 60.8438 47.8125C60.8438 43.9688 61.5156 40.375 62.8594 37.0312C64.2031 33.6875 66.0312 30.7812 68.3438 28.3125C70.6875 25.8125 73.4062 23.8438 76.5 22.4062C79.625 20.9688 82.9531 20.25 86.4844 20.25C88.5781 20.25 90.625 20.5156 92.625 21.0469C94.6562 21.5781 96.5781 22.3594 98.3906 23.3906C100.234 24.3906 101.922 25.625 103.453 27.0938C105.016 28.5625 106.359 30.25 107.484 32.1562Z" fill="#9E7BA3"/>
<path d="M126.562 72.375H113.766V22.1719H116.859L121.078 27.0469C123.141 25.1719 125.469 23.7344 128.062 22.7344C130.688 21.7031 133.422 21.1875 136.266 21.1875C139.328 21.1875 142.219 21.7812 144.938 22.9688C147.656 24.125 150.031 25.7344 152.062 27.7969C154.094 29.8281 155.688 32.2188 156.844 34.9688C158.031 37.6875 158.625 40.5938 158.625 43.6875V72.375H145.828V43.6875C145.828 42.375 145.578 41.1406 145.078 39.9844C144.578 38.7969 143.891 37.7656 143.016 36.8906C142.141 36.0156 141.125 35.3281 139.969 34.8281C138.812 34.3281 137.578 34.0781 136.266 34.0781C134.922 34.0781 133.656 34.3281 132.469 34.8281C131.281 35.3281 130.25 36.0156 129.375 36.8906C128.5 37.7656 127.812 38.7969 127.312 39.9844C126.812 41.1406 126.562 42.375 126.562 43.6875V72.375Z" fill="#9E7BA3"/>
<path d="M215.203 72.375H169.125V5.15625H215.203V18.6094H182.578V32.0625H204.656V45.5156H182.578V58.9219H215.203V72.375Z" fill="#9E7BA3"/>
<path d="M287.109 72.375H274.359V40.5C274.359 39.625 274.188 38.7969 273.844 38.0156C273.531 37.2344 273.078 36.5469 272.484 35.9531C271.891 35.3594 271.203 34.9062 270.422 34.5938C269.641 34.25 268.812 34.0781 267.938 34.0781C267.062 34.0781 266.234 34.25 265.453 34.5938C264.703 34.9062 264.031 35.3594 263.438 35.9531C262.875 36.5469 262.422 37.2344 262.078 38.0156C261.766 38.7969 261.609 39.625 261.609 40.5V72.375H248.812V40.5C248.812 39.625 248.641 38.7969 248.297 38.0156C247.984 37.2344 247.531 36.5469 246.938 35.9531C246.344 35.3594 245.656 34.9062 244.875 34.5938C244.094 34.25 243.266 34.0781 242.391 34.0781C241.516 34.0781 240.688 34.25 239.906 34.5938C239.156 34.9062 238.484 35.3594 237.891 35.9531C237.328 36.5469 236.875 37.2344 236.531 38.0156C236.219 38.7969 236.062 39.625 236.062 40.5V72.375H223.266V22.1719H226.359L229.828 26.0156C231.609 24.5156 233.562 23.3594 235.688 22.5469C237.844 21.7031 240.078 21.2812 242.391 21.2812C244.734 21.2812 247.016 21.7188 249.234 22.5938C251.484 23.4688 253.453 24.9844 255.141 27.1406C255.922 26.0781 256.812 25.1719 257.812 24.4219C258.812 23.6719 259.859 23.0625 260.953 22.5938C262.078 22.125 263.234 21.7969 264.422 21.6094C265.609 21.3906 266.781 21.2812 267.938 21.2812C270.594 21.2812 273.078 21.7812 275.391 22.7812C277.734 23.7812 279.766 25.1562 281.484 26.9062C283.234 28.625 284.609 30.6562 285.609 33C286.609 35.3438 287.109 37.8438 287.109 40.5V72.375Z" fill="#9E7BA3"/>
<path d="M309.375 91.5H296.484V22.1719H299.578L304.688 28.2188C305.844 27.125 307.109 26.0938 308.484 25.125C309.859 24.1562 311.281 23.3281 312.75 22.6406C314.25 21.9219 315.797 21.3594 317.391 20.9531C318.984 20.5469 320.594 20.3438 322.219 20.3438C325.75 20.3438 329.062 20.9844 332.156 22.2656C335.281 23.5156 338 25.2969 340.312 27.6094C342.656 29.9219 344.5 32.7188 345.844 36C347.188 39.25 347.859 42.8594 347.859 46.8281C347.859 50.9531 347.188 54.6719 345.844 57.9844C344.5 61.2656 342.656 64.0625 340.312 66.375C338 68.6562 335.281 70.4062 332.156 71.625C329.062 72.8438 325.75 73.4531 322.219 73.4531C321.094 73.4531 319.969 73.3281 318.844 73.0781C317.75 72.8281 316.656 72.5 315.562 72.0938C314.5 71.6562 313.438 71.1719 312.375 70.6406C311.344 70.1094 310.344 69.5625 309.375 69V91.5ZM335.016 46.8281C335.016 44.7031 334.672 42.7969 333.984 41.1094C333.328 39.4219 332.422 38 331.266 36.8438C330.109 35.6562 328.75 34.75 327.188 34.125C325.625 33.5 323.969 33.1875 322.219 33.1875C320.469 33.1875 318.812 33.5 317.25 34.125C315.719 34.75 314.375 35.6562 313.219 36.8438C312.062 38 311.141 39.4219 310.453 41.1094C309.797 42.7969 309.469 44.7031 309.469 46.8281C309.469 48.8594 309.797 50.7188 310.453 52.4062C311.141 54.0938 312.062 55.5312 313.219 56.7188C314.375 57.9062 315.719 58.8281 317.25 59.4844C318.812 60.1406 320.469 60.4688 322.219 60.4688C323.969 60.4688 325.625 60.1406 327.188 59.4844C328.75 58.8281 330.109 57.9062 331.266 56.7188C332.422 55.5312 333.328 54.0938 333.984 52.4062C334.672 50.7188 335.016 48.8594 335.016 46.8281Z" fill="#9E7BA3"/>
<path d="M403.594 72.375H400.5L395.531 65.4844C394.312 66.5781 393.016 67.6094 391.641 68.5781C390.297 69.5156 388.875 70.3438 387.375 71.0625C385.875 71.75 384.328 72.2969 382.734 72.7031C381.172 73.1094 379.578 73.3125 377.953 73.3125C374.422 73.3125 371.094 72.7188 367.969 71.5312C364.875 70.3438 362.156 68.625 359.812 66.375C357.5 64.0938 355.672 61.3125 354.328 58.0312C352.984 54.75 352.312 51.0156 352.312 46.8281C352.312 42.9219 352.984 39.3438 354.328 36.0938C355.672 32.8125 357.5 30 359.812 27.6562C362.156 25.3125 364.875 23.5 367.969 22.2188C371.094 20.9062 374.422 20.25 377.953 20.25C379.578 20.25 381.188 20.4531 382.781 20.8594C384.375 21.2656 385.922 21.8281 387.422 22.5469C388.922 23.2656 390.344 24.1094 391.688 25.0781C393.062 26.0469 394.344 27.0938 395.531 28.2188L400.5 22.2656H403.594V72.375ZM390.703 46.8281C390.703 45.0781 390.359 43.3906 389.672 41.7656C389.016 40.1094 388.109 38.6562 386.953 37.4062C385.797 36.125 384.438 35.1094 382.875 34.3594C381.344 33.5781 379.703 33.1875 377.953 33.1875C376.203 33.1875 374.547 33.4844 372.984 34.0781C371.453 34.6719 370.109 35.5469 368.953 36.7031C367.828 37.8594 366.938 39.2969 366.281 41.0156C365.625 42.7031 365.297 44.6406 365.297 46.8281C365.297 49.0156 365.625 50.9688 366.281 52.6875C366.938 54.375 367.828 55.7969 368.953 56.9531C370.109 58.1094 371.453 58.9844 372.984 59.5781C374.547 60.1719 376.203 60.4688 377.953 60.4688C379.703 60.4688 381.344 60.0938 382.875 59.3438C384.438 58.5625 385.797 57.5469 386.953 56.2969C388.109 55.0156 389.016 53.5625 389.672 51.9375C390.359 50.2812 390.703 48.5781 390.703 46.8281Z" fill="#9E7BA3"/>
<path d="M438.562 72.375C435.469 72.375 432.562 71.7969 429.844 70.6406C427.125 69.4531 424.734 67.8438 422.672 65.8125C420.641 63.75 419.031 61.3594 417.844 58.6406C416.688 55.9219 416.109 53.0156 416.109 49.9219V35.0156H409.875V22.2656H416.109V2.20312H428.859V22.2656H448.266V35.0156H428.859V49.9219C428.859 51.2656 429.109 52.5312 429.609 53.7188C430.109 54.875 430.797 55.8906 431.672 56.7656C432.547 57.6406 433.578 58.3438 434.766 58.875C435.953 59.375 437.219 59.625 438.562 59.625H448.266V72.375H438.562Z" fill="#9E7BA3"/>
<path d="M468.281 72.375H455.484V2.20312H468.281V24.375C469.812 23.2188 471.391 22.4062 473.016 21.9375C474.641 21.4375 476.297 21.1875 477.984 21.1875C481.078 21.1875 483.984 21.7812 486.703 22.9688C489.422 24.125 491.781 25.7344 493.781 27.7969C495.812 29.8281 497.406 32.2188 498.562 34.9688C499.75 37.6875 500.344 40.5938 500.344 43.6875V72.375H487.453V43.6875H487.547C487.547 42.375 487.297 41.1406 486.797 39.9844C486.297 38.7969 485.609 37.7656 484.734 36.8906C483.859 36.0156 482.844 35.3281 481.688 34.8281C480.531 34.3281 479.297 34.0781 477.984 34.0781C476.641 34.0781 475.375 34.3281 474.188 34.8281C473 35.3281 471.969 36.0156 471.094 36.8906C470.219 37.7656 469.531 38.7969 469.031 39.9844C468.531 41.1406 468.281 42.375 468.281 43.6875V72.375Z" fill="#9E7BA3"/>
<path d="M524.578 8.53125C524.578 9.71875 524.344 10.8281 523.875 11.8594C523.438 12.8906 522.828 13.7969 522.047 14.5781C521.266 15.3281 520.344 15.9375 519.281 16.4062C518.25 16.8438 517.141 17.0625 515.953 17.0625C514.766 17.0625 513.641 16.8438 512.578 16.4062C511.547 15.9375 510.641 15.3281 509.859 14.5781C509.109 13.7969 508.5 12.8906 508.031 11.8594C507.594 10.8281 507.375 9.71875 507.375 8.53125C507.375 7.375 507.594 6.28125 508.031 5.25C508.5 4.1875 509.109 3.28125 509.859 2.53125C510.641 1.75 511.547 1.14062 512.578 0.703125C513.641 0.234375 514.766 0 515.953 0C517.141 0 518.25 0.234375 519.281 0.703125C520.344 1.14062 521.266 1.75 522.047 2.53125C522.828 3.28125 523.438 4.1875 523.875 5.25C524.344 6.28125 524.578 7.375 524.578 8.53125ZM522.375 72.375H509.484V22.1719H522.375V72.375Z" fill="#9E7BA3"/>
<path d="M571.359 72.375H529.5L550.641 35.0156H529.5V22.2656H571.359L550.219 59.625H571.359V72.375Z" fill="#9E7BA3"/>
<path d="M597.703 60.0938C598.203 60.25 598.703 60.3594 599.203 60.4219C599.703 60.4531 600.203 60.4688 600.703 60.4688C601.953 60.4688 603.156 60.2969 604.312 59.9531C605.469 59.6094 606.547 59.125 607.547 58.5C608.578 57.8438 609.484 57.0625 610.266 56.1562C611.078 55.2188 611.734 54.1875 612.234 53.0625L621.609 62.4844C620.422 64.1719 619.047 65.6875 617.484 67.0312C615.953 68.375 614.281 69.5156 612.469 70.4531C610.688 71.3906 608.797 72.0938 606.797 72.5625C604.828 73.0625 602.797 73.3125 600.703 73.3125C597.172 73.3125 593.844 72.6562 590.719 71.3438C587.625 70.0312 584.906 68.2031 582.562 65.8594C580.25 63.5156 578.422 60.7344 577.078 57.5156C575.734 54.2656 575.062 50.7031 575.062 46.8281C575.062 42.8594 575.734 39.2344 577.078 35.9531C578.422 32.6719 580.25 29.875 582.562 27.5625C584.906 25.25 587.625 23.4531 590.719 22.1719C593.844 20.8906 597.172 20.25 600.703 20.25C602.797 20.25 604.844 20.5 606.844 21C608.844 21.5 610.734 22.2188 612.516 23.1562C614.328 24.0938 616.016 25.25 617.578 26.625C619.141 27.9688 620.516 29.4844 621.703 31.1719L597.703 60.0938ZM604.266 33.7031C603.672 33.4844 603.078 33.3438 602.484 33.2812C601.922 33.2188 601.328 33.1875 600.703 33.1875C598.953 33.1875 597.297 33.5156 595.734 34.1719C594.203 34.7969 592.859 35.7031 591.703 36.8906C590.578 38.0781 589.688 39.5156 589.031 41.2031C588.375 42.8594 588.047 44.7344 588.047 46.8281C588.047 47.2969 588.062 47.8281 588.094 48.4219C588.156 49.0156 588.234 49.625 588.328 50.25C588.453 50.8438 588.594 51.4219 588.75 51.9844C588.906 52.5469 589.109 53.0469 589.359 53.4844L604.266 33.7031Z" fill="#9E7BA3"/>
<path d="M87.0436 89.975C87.0436 89.4523 87.193 89.0043 87.4916 88.631C87.7903 88.247 88.201 87.9537 88.7236 87.751C89.257 87.5377 89.8703 87.431 90.5636 87.431C90.969 87.431 91.3903 87.463 91.8276 87.527C92.265 87.591 92.6543 87.687 92.9956 87.815V87.111C92.9956 86.407 92.7876 85.847 92.3716 85.431C91.9556 85.015 91.3796 84.807 90.6436 84.807C90.1956 84.807 89.753 84.8923 89.3156 85.063C88.889 85.223 88.441 85.463 87.9716 85.783L87.5556 85.015C88.0996 84.6417 88.633 84.3643 89.1556 84.183C89.6783 83.991 90.2116 83.895 90.7556 83.895C91.7796 83.895 92.5903 84.1883 93.1876 84.775C93.785 85.3617 94.0836 86.1723 94.0836 87.207V91.063C94.0836 91.2123 94.1156 91.3243 94.1796 91.399C94.2436 91.463 94.345 91.5003 94.4836 91.511V92.375C94.3663 92.3857 94.265 92.3963 94.1796 92.407C94.0943 92.4177 94.0303 92.4177 93.9876 92.407C93.721 92.3963 93.5183 92.311 93.3796 92.151C93.241 91.991 93.1663 91.8203 93.1556 91.639L93.1396 91.031C92.7663 91.511 92.281 91.8843 91.6836 92.151C91.0863 92.407 90.4783 92.535 89.8596 92.535C89.3263 92.535 88.841 92.423 88.4036 92.199C87.977 91.9643 87.641 91.655 87.3956 91.271C87.161 90.8763 87.0436 90.4443 87.0436 89.975ZM92.6276 90.615C92.745 90.4657 92.8356 90.3217 92.8996 90.183C92.9636 90.0443 92.9956 89.9217 92.9956 89.815V88.599C92.633 88.4603 92.2543 88.3537 91.8596 88.279C91.4756 88.2043 91.0863 88.167 90.6916 88.167C89.913 88.167 89.2836 88.3217 88.8036 88.631C88.3236 88.9403 88.0836 89.3617 88.0836 89.895C88.0836 90.2043 88.1636 90.4977 88.3236 90.775C88.4836 91.0417 88.7183 91.2657 89.0276 91.447C89.337 91.6177 89.6996 91.703 90.1156 91.703C90.6383 91.703 91.1236 91.6017 91.5716 91.399C92.0303 91.1963 92.3823 90.935 92.6276 90.615Z" fill="#333333"/>
<path d="M99.9525 88.231C99.9525 87.4417 100.113 86.7217 100.433 86.071C100.763 85.4097 101.217 84.8817 101.793 84.487C102.369 84.0923 103.024 83.895 103.76 83.895C104.454 83.895 105.073 84.0817 105.617 84.455C106.171 84.8177 106.603 85.2603 106.912 85.783V80.695H108.001V91.063C108.001 91.2123 108.032 91.3243 108.096 91.399C108.16 91.463 108.256 91.5003 108.384 91.511V92.375C108.171 92.407 108.006 92.4177 107.889 92.407C107.665 92.3963 107.467 92.3057 107.297 92.135C107.126 91.9643 107.04 91.7777 107.04 91.575V90.759C106.71 91.303 106.262 91.735 105.697 92.055C105.131 92.375 104.545 92.535 103.937 92.535C103.361 92.535 102.827 92.4177 102.337 92.183C101.857 91.9483 101.435 91.6283 101.073 91.223C100.721 90.8177 100.443 90.359 100.241 89.847C100.049 89.3243 99.9525 88.7857 99.9525 88.231ZM106.912 89.511V86.935C106.774 86.551 106.55 86.2043 106.241 85.895C105.931 85.575 105.579 85.3243 105.185 85.143C104.801 84.951 104.417 84.855 104.033 84.855C103.585 84.855 103.179 84.951 102.816 85.143C102.454 85.3243 102.139 85.575 101.872 85.895C101.616 86.215 101.419 86.5777 101.281 86.983C101.142 87.3883 101.073 87.8043 101.073 88.231C101.073 88.679 101.147 89.1057 101.297 89.511C101.457 89.9163 101.68 90.279 101.968 90.599C102.256 90.9083 102.587 91.1483 102.961 91.319C103.334 91.4897 103.739 91.575 104.176 91.575C104.454 91.575 104.742 91.5217 105.04 91.415C105.339 91.3083 105.622 91.1643 105.889 90.983C106.166 90.791 106.395 90.567 106.576 90.311C106.758 90.055 106.87 89.7883 106.912 89.511Z" fill="#333333"/>
<path d="M109.794 89.975C109.794 89.4523 109.943 89.0043 110.242 88.631C110.54 88.247 110.951 87.9537 111.474 87.751C112.007 87.5377 112.62 87.431 113.314 87.431C113.719 87.431 114.14 87.463 114.578 87.527C115.015 87.591 115.404 87.687 115.746 87.815V87.111C115.746 86.407 115.538 85.847 115.122 85.431C114.706 85.015 114.13 84.807 113.394 84.807C112.946 84.807 112.503 84.8923 112.066 85.063C111.639 85.223 111.191 85.463 110.722 85.783L110.306 85.015C110.85 84.6417 111.383 84.3643 111.906 84.183C112.428 83.991 112.962 83.895 113.506 83.895C114.53 83.895 115.34 84.1883 115.938 84.775C116.535 85.3617 116.834 86.1723 116.834 87.207V91.063C116.834 91.2123 116.866 91.3243 116.93 91.399C116.994 91.463 117.095 91.5003 117.234 91.511V92.375C117.116 92.3857 117.015 92.3963 116.93 92.407C116.844 92.4177 116.78 92.4177 116.738 92.407C116.471 92.3963 116.268 92.311 116.13 92.151C115.991 91.991 115.916 91.8203 115.906 91.639L115.89 91.031C115.516 91.511 115.031 91.8843 114.434 92.151C113.836 92.407 113.228 92.535 112.61 92.535C112.076 92.535 111.591 92.423 111.154 92.199C110.727 91.9643 110.391 91.655 110.146 91.271C109.911 90.8763 109.794 90.4443 109.794 89.975ZM115.378 90.615C115.495 90.4657 115.586 90.3217 115.65 90.183C115.714 90.0443 115.746 89.9217 115.746 89.815V88.599C115.383 88.4603 115.004 88.3537 114.61 88.279C114.226 88.2043 113.836 88.167 113.442 88.167C112.663 88.167 112.034 88.3217 111.554 88.631C111.074 88.9403 110.834 89.3617 110.834 89.895C110.834 90.2043 110.914 90.4977 111.074 90.775C111.234 91.0417 111.468 91.2657 111.778 91.447C112.087 91.6177 112.45 91.703 112.866 91.703C113.388 91.703 113.874 91.6017 114.322 91.399C114.78 91.1963 115.132 90.935 115.378 90.615Z" fill="#333333"/>
<path d="M123.122 91.975C123.037 92.007 122.903 92.0657 122.722 92.151C122.541 92.2363 122.322 92.311 122.066 92.375C121.81 92.439 121.533 92.471 121.234 92.471C120.925 92.471 120.631 92.4123 120.354 92.295C120.087 92.1777 119.874 92.0017 119.714 91.767C119.554 91.5217 119.474 91.223 119.474 90.871V84.903H118.322V84.039H119.474V81.223H120.562V84.039H122.482V84.903H120.562V90.567C120.583 90.8657 120.69 91.0897 120.882 91.239C121.085 91.3883 121.314 91.463 121.57 91.463C121.869 91.463 122.141 91.415 122.386 91.319C122.631 91.2123 122.781 91.1377 122.834 91.095L123.122 91.975Z" fill="#333333"/>
<path d="M123.809 89.975C123.809 89.4523 123.959 89.0043 124.257 88.631C124.556 88.247 124.967 87.9537 125.489 87.751C126.023 87.5377 126.636 87.431 127.329 87.431C127.735 87.431 128.156 87.463 128.593 87.527C129.031 87.591 129.42 87.687 129.761 87.815V87.111C129.761 86.407 129.553 85.847 129.137 85.431C128.721 85.015 128.145 84.807 127.409 84.807C126.961 84.807 126.519 84.8923 126.081 85.063C125.655 85.223 125.207 85.463 124.737 85.783L124.321 85.015C124.865 84.6417 125.399 84.3643 125.921 84.183C126.444 83.991 126.977 83.895 127.521 83.895C128.545 83.895 129.356 84.1883 129.953 84.775C130.551 85.3617 130.849 86.1723 130.849 87.207V91.063C130.849 91.2123 130.881 91.3243 130.945 91.399C131.009 91.463 131.111 91.5003 131.249 91.511V92.375C131.132 92.3857 131.031 92.3963 130.945 92.407C130.86 92.4177 130.796 92.4177 130.753 92.407C130.487 92.3963 130.284 92.311 130.145 92.151C130.007 91.991 129.932 91.8203 129.921 91.639L129.905 91.031C129.532 91.511 129.047 91.8843 128.449 92.151C127.852 92.407 127.244 92.535 126.625 92.535C126.092 92.535 125.607 92.423 125.169 92.199C124.743 91.9643 124.407 91.655 124.161 91.271C123.927 90.8763 123.809 90.4443 123.809 89.975ZM129.393 90.615C129.511 90.4657 129.601 90.3217 129.665 90.183C129.729 90.0443 129.761 89.9217 129.761 89.815V88.599C129.399 88.4603 129.02 88.3537 128.625 88.279C128.241 88.2043 127.852 88.167 127.457 88.167C126.679 88.167 126.049 88.3217 125.569 88.631C125.089 88.9403 124.849 89.3617 124.849 89.895C124.849 90.2043 124.929 90.4977 125.089 90.775C125.249 91.0417 125.484 91.2657 125.793 91.447C126.103 91.6177 126.465 91.703 126.881 91.703C127.404 91.703 127.889 91.6017 128.337 91.399C128.796 91.1963 129.148 90.935 129.393 90.615Z" fill="#333333"/>
<path d="M137.28 92.535C136.629 92.535 136.027 92.3697 135.472 92.039C134.917 91.6977 134.485 91.271 134.176 90.759V92.375H133.2V80.695H134.288V85.783C134.661 85.2177 135.109 84.7643 135.632 84.423C136.155 84.071 136.763 83.895 137.456 83.895C138.043 83.895 138.565 84.0177 139.024 84.263C139.493 84.5083 139.893 84.839 140.224 85.255C140.555 85.6603 140.805 86.1243 140.976 86.647C141.147 87.159 141.232 87.687 141.232 88.231C141.232 88.8177 141.131 89.367 140.928 89.879C140.736 90.391 140.459 90.8497 140.096 91.255C139.733 91.6497 139.312 91.9643 138.832 92.199C138.363 92.423 137.845 92.535 137.28 92.535ZM137.024 91.575C137.472 91.575 137.888 91.4843 138.272 91.303C138.656 91.1217 138.987 90.871 139.264 90.551C139.541 90.231 139.755 89.8737 139.904 89.479C140.053 89.0737 140.128 88.6577 140.128 88.231C140.128 87.6443 140 87.095 139.744 86.583C139.499 86.0603 139.152 85.6443 138.704 85.335C138.267 85.015 137.749 84.855 137.152 84.855C136.725 84.855 136.325 84.951 135.952 85.143C135.589 85.335 135.264 85.591 134.976 85.911C134.699 86.2203 134.469 86.5617 134.288 86.935V89.527C134.331 89.815 134.443 90.087 134.624 90.343C134.805 90.5883 135.029 90.8017 135.296 90.983C135.573 91.1643 135.861 91.3083 136.16 91.415C136.459 91.5217 136.747 91.575 137.024 91.575Z" fill="#333333"/>
<path d="M142.403 89.975C142.403 89.4523 142.552 89.0043 142.851 88.631C143.15 88.247 143.56 87.9537 144.083 87.751C144.616 87.5377 145.23 87.431 145.923 87.431C146.328 87.431 146.75 87.463 147.187 87.527C147.624 87.591 148.014 87.687 148.355 87.815V87.111C148.355 86.407 148.147 85.847 147.731 85.431C147.315 85.015 146.739 84.807 146.003 84.807C145.555 84.807 145.112 84.8923 144.675 85.063C144.248 85.223 143.8 85.463 143.331 85.783L142.915 85.015C143.459 84.6417 143.992 84.3643 144.515 84.183C145.038 83.991 145.571 83.895 146.115 83.895C147.139 83.895 147.95 84.1883 148.547 84.775C149.144 85.3617 149.443 86.1723 149.443 87.207V91.063C149.443 91.2123 149.475 91.3243 149.539 91.399C149.603 91.463 149.704 91.5003 149.843 91.511V92.375C149.726 92.3857 149.624 92.3963 149.539 92.407C149.454 92.4177 149.39 92.4177 149.347 92.407C149.08 92.3963 148.878 92.311 148.739 92.151C148.6 91.991 148.526 91.8203 148.515 91.639L148.499 91.031C148.126 91.511 147.64 91.8843 147.043 92.151C146.446 92.407 145.838 92.535 145.219 92.535C144.686 92.535 144.2 92.423 143.763 92.199C143.336 91.9643 143 91.655 142.755 91.271C142.52 90.8763 142.403 90.4443 142.403 89.975ZM147.987 90.615C148.104 90.4657 148.195 90.3217 148.259 90.183C148.323 90.0443 148.355 89.9217 148.355 89.815V88.599C147.992 88.4603 147.614 88.3537 147.219 88.279C146.835 88.2043 146.446 88.167 146.051 88.167C145.272 88.167 144.643 88.3217 144.163 88.631C143.683 88.9403 143.443 89.3617 143.443 89.895C143.443 90.2043 143.523 90.4977 143.683 90.775C143.843 91.0417 144.078 91.2657 144.387 91.447C144.696 91.6177 145.059 91.703 145.475 91.703C145.998 91.703 146.483 91.6017 146.931 91.399C147.39 91.1963 147.742 90.935 147.987 90.615Z" fill="#333333"/>
<path d="M154.53 92.535C153.847 92.535 153.212 92.423 152.626 92.199C152.039 91.975 151.532 91.6337 151.106 91.175L151.554 90.407C152.023 90.8443 152.492 91.1643 152.962 91.367C153.442 91.559 153.948 91.655 154.482 91.655C155.132 91.655 155.66 91.527 156.066 91.271C156.471 91.0043 156.674 90.6257 156.674 90.135C156.674 89.8043 156.572 89.5537 156.37 89.383C156.178 89.2017 155.895 89.0577 155.522 88.951C155.159 88.8337 154.722 88.711 154.21 88.583C153.634 88.423 153.148 88.2577 152.754 88.087C152.37 87.9057 152.076 87.6817 151.874 87.415C151.682 87.1377 151.586 86.7803 151.586 86.343C151.586 85.799 151.719 85.351 151.986 84.999C152.263 84.6363 152.636 84.3643 153.106 84.183C153.586 83.991 154.119 83.895 154.706 83.895C155.346 83.895 155.911 83.9963 156.402 84.199C156.892 84.4017 157.292 84.6843 157.602 85.047L157.074 85.783C156.775 85.4417 156.418 85.191 156.002 85.031C155.596 84.8603 155.143 84.775 154.642 84.775C154.3 84.775 153.975 84.823 153.666 84.919C153.356 85.0043 153.1 85.1537 152.898 85.367C152.706 85.5697 152.61 85.8523 152.61 86.215C152.61 86.5137 152.684 86.7483 152.834 86.919C152.983 87.079 153.207 87.2177 153.506 87.335C153.804 87.4417 154.172 87.559 154.61 87.687C155.239 87.8577 155.788 88.0337 156.258 88.215C156.727 88.3857 157.09 88.6097 157.346 88.887C157.602 89.1643 157.73 89.5537 157.73 90.055C157.73 90.8337 157.436 91.4417 156.85 91.879C156.263 92.3163 155.49 92.535 154.53 92.535Z" fill="#333333"/>
<path d="M163.128 92.535C162.531 92.535 161.976 92.423 161.464 92.199C160.952 91.9643 160.509 91.6497 160.136 91.255C159.763 90.8497 159.469 90.3857 159.256 89.863C159.053 89.3403 158.952 88.7803 158.952 88.183C158.952 87.4043 159.128 86.6897 159.48 86.039C159.843 85.3883 160.339 84.871 160.968 84.487C161.597 84.0923 162.312 83.895 163.112 83.895C163.933 83.895 164.648 84.0923 165.256 84.487C165.875 84.8817 166.36 85.4043 166.712 86.055C167.064 86.695 167.24 87.399 167.24 88.167C167.24 88.2523 167.24 88.3377 167.24 88.423C167.24 88.4977 167.235 88.5563 167.224 88.599H160.088C160.141 89.1963 160.307 89.7297 160.584 90.199C160.872 90.6577 161.24 91.0257 161.688 91.303C162.147 91.5697 162.643 91.703 163.176 91.703C163.72 91.703 164.232 91.5643 164.712 91.287C165.203 91.0097 165.544 90.647 165.736 90.199L166.68 90.455C166.509 90.8497 166.248 91.207 165.896 91.527C165.544 91.847 165.128 92.0977 164.648 92.279C164.179 92.4497 163.672 92.535 163.128 92.535ZM160.056 87.815H166.216C166.173 87.207 166.008 86.6737 165.72 86.215C165.443 85.7563 165.075 85.399 164.616 85.143C164.168 84.8763 163.672 84.743 163.128 84.743C162.584 84.743 162.088 84.8763 161.64 85.143C161.192 85.399 160.824 85.7617 160.536 86.231C160.259 86.6897 160.099 87.2177 160.056 87.815Z" fill="#333333"/>
<path d="M176.549 92.535C175.952 92.535 175.397 92.423 174.885 92.199C174.384 91.9643 173.946 91.6497 173.573 91.255C173.21 90.8497 172.928 90.391 172.725 89.879C172.522 89.3563 172.421 88.807 172.421 88.231C172.421 87.6337 172.522 87.079 172.725 86.567C172.928 86.0443 173.216 85.5857 173.589 85.191C173.962 84.7857 174.4 84.471 174.901 84.247C175.413 84.0123 175.968 83.895 176.565 83.895C177.162 83.895 177.712 84.0123 178.213 84.247C178.714 84.471 179.152 84.7857 179.525 85.191C179.898 85.5857 180.186 86.0443 180.389 86.567C180.592 87.079 180.693 87.6337 180.693 88.231C180.693 88.807 180.592 89.3563 180.389 89.879C180.186 90.391 179.898 90.8497 179.525 91.255C179.162 91.6497 178.725 91.9643 178.213 92.199C177.712 92.423 177.157 92.535 176.549 92.535ZM173.525 88.247C173.525 88.8657 173.658 89.431 173.925 89.943C174.202 90.4443 174.57 90.8443 175.029 91.143C175.488 91.431 175.994 91.575 176.549 91.575C177.104 91.575 177.61 91.4257 178.069 91.127C178.528 90.8283 178.896 90.423 179.173 89.911C179.45 89.3883 179.589 88.823 179.589 88.215C179.589 87.5963 179.45 87.031 179.173 86.519C178.896 86.007 178.528 85.6017 178.069 85.303C177.61 85.0043 177.104 84.855 176.549 84.855C175.994 84.855 175.488 85.0097 175.029 85.319C174.581 85.6283 174.218 86.039 173.941 86.551C173.664 87.0523 173.525 87.6177 173.525 88.247Z" fill="#333333"/>
<path d="M182.772 92.375V84.903H181.62V84.039H182.772V83.815C182.772 83.1323 182.868 82.5457 183.06 82.055C183.263 81.5643 183.545 81.191 183.908 80.935C184.281 80.6683 184.719 80.535 185.22 80.535C185.551 80.535 185.871 80.583 186.18 80.679C186.489 80.775 186.756 80.903 186.98 81.063L186.644 81.847C186.505 81.7297 186.324 81.639 186.1 81.575C185.876 81.511 185.652 81.479 185.428 81.479C184.927 81.479 184.537 81.6763 184.26 82.071C183.993 82.4657 183.86 83.0363 183.86 83.783V84.039H186.164V84.903H183.86V92.375H182.772Z" fill="#333333"/>
<path d="M194.972 92.535C194.375 92.535 193.82 92.423 193.308 92.199C192.796 91.9643 192.353 91.6497 191.98 91.255C191.607 90.8497 191.313 90.3857 191.1 89.863C190.897 89.3403 190.796 88.7803 190.796 88.183C190.796 87.4043 190.972 86.6897 191.324 86.039C191.687 85.3883 192.183 84.871 192.812 84.487C193.441 84.0923 194.156 83.895 194.956 83.895C195.777 83.895 196.492 84.0923 197.1 84.487C197.719 84.8817 198.204 85.4043 198.556 86.055C198.908 86.695 199.084 87.399 199.084 88.167C199.084 88.2523 199.084 88.3377 199.084 88.423C199.084 88.4977 199.079 88.5563 199.068 88.599H191.932C191.985 89.1963 192.151 89.7297 192.428 90.199C192.716 90.6577 193.084 91.0257 193.532 91.303C193.991 91.5697 194.487 91.703 195.02 91.703C195.564 91.703 196.076 91.5643 196.556 91.287C197.047 91.0097 197.388 90.647 197.58 90.199L198.524 90.455C198.353 90.8497 198.092 91.207 197.74 91.527C197.388 91.847 196.972 92.0977 196.492 92.279C196.023 92.4497 195.516 92.535 194.972 92.535ZM191.9 87.815H198.06C198.017 87.207 197.852 86.6737 197.564 86.215C197.287 85.7563 196.919 85.399 196.46 85.143C196.012 84.8763 195.516 84.743 194.972 84.743C194.428 84.743 193.932 84.8763 193.484 85.143C193.036 85.399 192.668 85.7617 192.38 86.231C192.103 86.6897 191.943 87.2177 191.9 87.815Z" fill="#333333"/>
<path d="M213.163 92.375H212.074V87.719C212.074 86.7483 211.92 86.0337 211.611 85.575C211.301 85.1163 210.842 84.887 210.234 84.887C209.605 84.887 209.04 85.111 208.538 85.559C208.048 86.007 207.701 86.583 207.499 87.287V92.375H206.411V87.719C206.411 86.7377 206.261 86.023 205.962 85.575C205.664 85.1163 205.205 84.887 204.587 84.887C203.968 84.887 203.408 85.1057 202.906 85.543C202.405 85.9803 202.053 86.5563 201.85 87.271V92.375H200.762V84.039H201.755V85.927C202.107 85.2763 202.554 84.775 203.098 84.423C203.653 84.071 204.267 83.895 204.939 83.895C205.632 83.895 206.192 84.0923 206.618 84.487C207.045 84.8817 207.306 85.399 207.402 86.039C207.786 85.335 208.245 84.8017 208.779 84.439C209.323 84.0763 209.936 83.895 210.618 83.895C211.088 83.895 211.483 83.9803 211.803 84.151C212.133 84.3217 212.395 84.567 212.587 84.887C212.789 85.1963 212.933 85.575 213.018 86.023C213.114 86.4603 213.163 86.951 213.163 87.495V92.375Z" fill="#333333"/>
<path d="M219.722 92.535C219.028 92.535 218.404 92.3537 217.85 91.991C217.306 91.6283 216.874 91.1803 216.554 90.647V95.783H215.466V84.039H216.442V85.655C216.772 85.1323 217.215 84.711 217.77 84.391C218.324 84.0603 218.916 83.895 219.546 83.895C220.122 83.895 220.65 84.0177 221.13 84.263C221.61 84.4977 222.026 84.8177 222.378 85.223C222.73 85.6283 223.002 86.0923 223.194 86.615C223.396 87.127 223.498 87.6603 223.498 88.215C223.498 88.9937 223.338 89.7137 223.018 90.375C222.708 91.0257 222.271 91.5483 221.706 91.943C221.14 92.3377 220.479 92.535 219.722 92.535ZM219.418 91.575C219.876 91.575 220.287 91.4843 220.65 91.303C221.012 91.111 221.322 90.855 221.578 90.535C221.844 90.215 222.047 89.8577 222.186 89.463C222.324 89.0577 222.394 88.6417 222.394 88.215C222.394 87.767 222.314 87.3403 222.154 86.935C222.004 86.5297 221.786 86.1723 221.498 85.863C221.21 85.5537 220.879 85.3083 220.506 85.127C220.132 84.9457 219.727 84.855 219.29 84.855C219.012 84.855 218.724 84.9083 218.426 85.015C218.127 85.1217 217.839 85.2763 217.562 85.479C217.295 85.671 217.071 85.8897 216.89 86.135C216.708 86.3803 216.596 86.6417 216.554 86.919V89.479C216.724 89.8737 216.954 90.231 217.242 90.551C217.53 90.8603 217.86 91.111 218.234 91.303C218.618 91.4843 219.012 91.575 219.418 91.575Z" fill="#333333"/>
<path d="M224.669 89.975C224.669 89.4523 224.818 89.0043 225.117 88.631C225.415 88.247 225.826 87.9537 226.349 87.751C226.882 87.5377 227.495 87.431 228.189 87.431C228.594 87.431 229.015 87.463 229.453 87.527C229.89 87.591 230.279 87.687 230.621 87.815V87.111C230.621 86.407 230.413 85.847 229.997 85.431C229.581 85.015 229.005 84.807 228.269 84.807C227.821 84.807 227.378 84.8923 226.941 85.063C226.514 85.223 226.066 85.463 225.597 85.783L225.181 85.015C225.725 84.6417 226.258 84.3643 226.781 84.183C227.303 83.991 227.837 83.895 228.381 83.895C229.405 83.895 230.215 84.1883 230.813 84.775C231.41 85.3617 231.709 86.1723 231.709 87.207V91.063C231.709 91.2123 231.741 91.3243 231.805 91.399C231.869 91.463 231.97 91.5003 232.109 91.511V92.375C231.991 92.3857 231.89 92.3963 231.805 92.407C231.719 92.4177 231.655 92.4177 231.613 92.407C231.346 92.3963 231.143 92.311 231.005 92.151C230.866 91.991 230.791 91.8203 230.781 91.639L230.765 91.031C230.391 91.511 229.906 91.8843 229.309 92.151C228.711 92.407 228.103 92.535 227.485 92.535C226.951 92.535 226.466 92.423 226.029 92.199C225.602 91.9643 225.266 91.655 225.021 91.271C224.786 90.8763 224.669 90.4443 224.669 89.975ZM230.253 90.615C230.37 90.4657 230.461 90.3217 230.525 90.183C230.589 90.0443 230.621 89.9217 230.621 89.815V88.599C230.258 88.4603 229.879 88.3537 229.485 88.279C229.101 88.2043 228.711 88.167 228.317 88.167C227.538 88.167 226.909 88.3217 226.429 88.631C225.949 88.9403 225.709 89.3617 225.709 89.895C225.709 90.2043 225.789 90.4977 225.949 90.775C226.109 91.0417 226.343 91.2657 226.653 91.447C226.962 91.6177 227.325 91.703 227.741 91.703C228.263 91.703 228.749 91.6017 229.197 91.399C229.655 91.1963 230.007 90.935 230.253 90.615Z" fill="#333333"/>
<path d="M237.997 91.975C237.912 92.007 237.778 92.0657 237.597 92.151C237.416 92.2363 237.197 92.311 236.941 92.375C236.685 92.439 236.408 92.471 236.109 92.471C235.8 92.471 235.506 92.4123 235.229 92.295C234.962 92.1777 234.749 92.0017 234.589 91.767C234.429 91.5217 234.349 91.223 234.349 90.871V84.903H233.197V84.039H234.349V81.223H235.437V84.039H237.357V84.903H235.437V90.567C235.458 90.8657 235.565 91.0897 235.757 91.239C235.96 91.3883 236.189 91.463 236.445 91.463C236.744 91.463 237.016 91.415 237.261 91.319C237.506 91.2123 237.656 91.1377 237.709 91.095L237.997 91.975Z" fill="#333333"/>
<path d="M246.364 92.375H245.276V87.719C245.276 86.7803 245.111 86.0763 244.78 85.607C244.45 85.127 243.975 84.887 243.356 84.887C242.951 84.887 242.546 84.9937 242.14 85.207C241.746 85.4097 241.394 85.6923 241.084 86.055C240.786 86.407 240.572 86.8123 240.444 87.271V92.375H239.356V80.695H240.444V85.927C240.775 85.3083 241.234 84.8177 241.82 84.455C242.418 84.0817 243.052 83.895 243.724 83.895C244.204 83.895 244.61 83.9803 244.94 84.151C245.282 84.3217 245.554 84.5723 245.756 84.903C245.97 85.223 246.124 85.6017 246.22 86.039C246.316 86.4657 246.364 86.951 246.364 87.495V92.375Z" fill="#333333"/>
<path d="M248.961 94.935C249.111 94.9457 249.255 94.951 249.393 94.951C249.532 94.9617 249.633 94.9563 249.697 94.935C249.825 94.9137 249.948 94.839 250.065 94.711C250.183 94.583 250.321 94.3377 250.481 93.975C250.641 93.6123 250.865 93.079 251.153 92.375L247.521 84.039H248.673L251.729 91.255L254.545 84.039H255.633L251.313 94.791C251.239 94.9937 251.127 95.1803 250.977 95.351C250.828 95.5323 250.641 95.671 250.417 95.767C250.204 95.8737 249.937 95.9323 249.617 95.943C249.521 95.9537 249.42 95.9537 249.313 95.943C249.217 95.943 249.1 95.9323 248.961 95.911V94.935Z" fill="#333333"/>
<path d="M260.794 92.375V84.039H261.882V92.375H260.794ZM260.794 82.295V80.695H261.882V82.295H260.794Z" fill="#333333"/>
<path d="M271.286 92.375H270.198V87.719C270.198 86.7377 270.054 86.023 269.766 85.575C269.478 85.1163 269.025 84.887 268.406 84.887C267.979 84.887 267.558 84.9937 267.142 85.207C266.726 85.4097 266.358 85.6923 266.038 86.055C265.729 86.407 265.505 86.8123 265.366 87.271V92.375H264.278V84.039H265.27V85.927C265.494 85.5217 265.787 85.1697 266.15 84.871C266.513 84.5617 266.923 84.3217 267.382 84.151C267.841 83.9803 268.315 83.895 268.806 83.895C269.265 83.895 269.654 83.9803 269.974 84.151C270.294 84.3217 270.55 84.567 270.742 84.887C270.934 85.1963 271.073 85.575 271.158 86.023C271.243 86.4603 271.286 86.951 271.286 87.495V92.375Z" fill="#333333"/>
<path d="M341.316 92.535C340.718 92.535 340.164 92.423 339.652 92.199C339.14 91.9643 338.697 91.6497 338.324 91.255C337.95 90.8497 337.657 90.3857 337.444 89.863C337.241 89.3403 337.14 88.7803 337.14 88.183C337.14 87.4043 337.316 86.6897 337.668 86.039C338.03 85.3883 338.526 84.871 339.156 84.487C339.785 84.0923 340.5 83.895 341.3 83.895C342.121 83.895 342.836 84.0923 343.444 84.487C344.062 84.8817 344.548 85.4043 344.9 86.055C345.252 86.695 345.428 87.399 345.428 88.167C345.428 88.2523 345.428 88.3377 345.428 88.423C345.428 88.4977 345.422 88.5563 345.412 88.599H338.276C338.329 89.1963 338.494 89.7297 338.772 90.199C339.06 90.6577 339.428 91.0257 339.876 91.303C340.334 91.5697 340.83 91.703 341.364 91.703C341.908 91.703 342.42 91.5643 342.9 91.287C343.39 91.0097 343.732 90.647 343.924 90.199L344.868 90.455C344.697 90.8497 344.436 91.207 344.084 91.527C343.732 91.847 343.316 92.0977 342.836 92.279C342.366 92.4497 341.86 92.535 341.316 92.535ZM338.244 87.815H344.404C344.361 87.207 344.196 86.6737 343.908 86.215C343.63 85.7563 343.262 85.399 342.804 85.143C342.356 84.8763 341.86 84.743 341.316 84.743C340.772 84.743 340.276 84.8763 339.828 85.143C339.38 85.399 339.012 85.7617 338.724 86.231C338.446 86.6897 338.286 87.2177 338.244 87.815Z" fill="#333333"/>
<path d="M349.367 92.375L345.991 84.039H347.128L349.975 91.287L352.84 84.039H353.911L350.535 92.375H349.367Z" fill="#333333"/>
<path d="M358.737 92.535C358.14 92.535 357.585 92.423 357.073 92.199C356.561 91.9643 356.119 91.6497 355.746 91.255C355.372 90.8497 355.079 90.3857 354.866 89.863C354.663 89.3403 354.561 88.7803 354.561 88.183C354.561 87.4043 354.738 86.6897 355.09 86.039C355.452 85.3883 355.948 84.871 356.578 84.487C357.207 84.0923 357.921 83.895 358.721 83.895C359.543 83.895 360.258 84.0923 360.866 84.487C361.484 84.8817 361.97 85.4043 362.322 86.055C362.674 86.695 362.849 87.399 362.849 88.167C362.849 88.2523 362.849 88.3377 362.849 88.423C362.849 88.4977 362.844 88.5563 362.833 88.599H355.698C355.751 89.1963 355.916 89.7297 356.194 90.199C356.482 90.6577 356.849 91.0257 357.297 91.303C357.756 91.5697 358.252 91.703 358.785 91.703C359.329 91.703 359.842 91.5643 360.322 91.287C360.812 91.0097 361.153 90.647 361.345 90.199L362.289 90.455C362.119 90.8497 361.857 91.207 361.505 91.527C361.153 91.847 360.738 92.0977 360.258 92.279C359.788 92.4497 359.281 92.535 358.737 92.535ZM355.665 87.815H361.826C361.783 87.207 361.617 86.6737 361.329 86.215C361.052 85.7563 360.684 85.399 360.225 85.143C359.777 84.8763 359.281 84.743 358.737 84.743C358.193 84.743 357.698 84.8763 357.25 85.143C356.802 85.399 356.434 85.7617 356.146 86.231C355.868 86.6897 355.708 87.2177 355.665 87.815Z" fill="#333333"/>
<path d="M368.688 84.999C367.963 85.0203 367.323 85.223 366.768 85.607C366.224 85.991 365.84 86.519 365.616 87.191V92.375H364.528V84.039H365.552V86.039C365.84 85.4523 366.219 84.9777 366.688 84.615C367.168 84.2523 367.675 84.0497 368.208 84.007C368.315 83.9963 368.405 83.991 368.48 83.991C368.565 83.991 368.635 83.9963 368.688 84.007V84.999Z" fill="#333333"/>
<path d="M370.617 94.935C370.767 94.9457 370.911 94.951 371.049 94.951C371.188 94.9617 371.289 94.9563 371.353 94.935C371.481 94.9137 371.604 94.839 371.721 94.711C371.839 94.583 371.978 94.3377 372.138 93.975C372.298 93.6123 372.522 93.079 372.81 92.375L369.177 84.039H370.329L373.385 91.255L376.202 84.039H377.289L372.97 94.791C372.895 94.9937 372.783 95.1803 372.634 95.351C372.484 95.5323 372.297 95.671 372.073 95.767C371.86 95.8737 371.593 95.9323 371.273 95.943C371.177 95.9537 371.076 95.9537 370.97 95.943C370.874 95.943 370.756 95.9323 370.617 95.911V94.935Z" fill="#333333"/>
<path d="M377.968 88.231C377.968 87.4417 378.128 86.7217 378.448 86.071C378.779 85.4097 379.232 84.8817 379.808 84.487C380.384 84.0923 381.04 83.895 381.776 83.895C382.469 83.895 383.088 84.0817 383.632 84.455C384.187 84.8177 384.619 85.2603 384.928 85.783V80.695H386.016V91.063C386.016 91.2123 386.048 91.3243 386.112 91.399C386.176 91.463 386.272 91.5003 386.4 91.511V92.375C386.187 92.407 386.021 92.4177 385.904 92.407C385.68 92.3963 385.483 92.3057 385.312 92.135C385.141 91.9643 385.056 91.7777 385.056 91.575V90.759C384.725 91.303 384.277 91.735 383.712 92.055C383.147 92.375 382.56 92.535 381.952 92.535C381.376 92.535 380.843 92.4177 380.352 92.183C379.872 91.9483 379.451 91.6283 379.088 91.223C378.736 90.8177 378.459 90.359 378.256 89.847C378.064 89.3243 377.968 88.7857 377.968 88.231ZM384.928 89.511V86.935C384.789 86.551 384.565 86.2043 384.256 85.895C383.947 85.575 383.595 85.3243 383.2 85.143C382.816 84.951 382.432 84.855 382.048 84.855C381.6 84.855 381.195 84.951 380.832 85.143C380.469 85.3243 380.155 85.575 379.888 85.895C379.632 86.215 379.435 86.5777 379.296 86.983C379.157 87.3883 379.088 87.8043 379.088 88.231C379.088 88.679 379.163 89.1057 379.312 89.511C379.472 89.9163 379.696 90.279 379.984 90.599C380.272 90.9083 380.603 91.1483 380.976 91.319C381.349 91.4897 381.755 91.575 382.192 91.575C382.469 91.575 382.757 91.5217 383.056 91.415C383.355 91.3083 383.637 91.1643 383.904 90.983C384.181 90.791 384.411 90.567 384.592 90.311C384.773 90.055 384.885 89.7883 384.928 89.511Z" fill="#333333"/>
<path d="M387.809 89.975C387.809 89.4523 387.959 89.0043 388.257 88.631C388.556 88.247 388.967 87.9537 389.489 87.751C390.023 87.5377 390.636 87.431 391.329 87.431C391.735 87.431 392.156 87.463 392.593 87.527C393.031 87.591 393.42 87.687 393.761 87.815V87.111C393.761 86.407 393.553 85.847 393.137 85.431C392.721 85.015 392.145 84.807 391.409 84.807C390.961 84.807 390.519 84.8923 390.081 85.063C389.655 85.223 389.207 85.463 388.737 85.783L388.321 85.015C388.865 84.6417 389.399 84.3643 389.921 84.183C390.444 83.991 390.977 83.895 391.521 83.895C392.545 83.895 393.356 84.1883 393.953 84.775C394.551 85.3617 394.849 86.1723 394.849 87.207V91.063C394.849 91.2123 394.881 91.3243 394.945 91.399C395.009 91.463 395.111 91.5003 395.249 91.511V92.375C395.132 92.3857 395.031 92.3963 394.945 92.407C394.86 92.4177 394.796 92.4177 394.753 92.407C394.487 92.3963 394.284 92.311 394.145 92.151C394.007 91.991 393.932 91.8203 393.921 91.639L393.905 91.031C393.532 91.511 393.047 91.8843 392.449 92.151C391.852 92.407 391.244 92.535 390.625 92.535C390.092 92.535 389.607 92.423 389.169 92.199C388.743 91.9643 388.407 91.655 388.161 91.271C387.927 90.8763 387.809 90.4443 387.809 89.975ZM393.393 90.615C393.511 90.4657 393.601 90.3217 393.665 90.183C393.729 90.0443 393.761 89.9217 393.761 89.815V88.599C393.399 88.4603 393.02 88.3537 392.625 88.279C392.241 88.2043 391.852 88.167 391.457 88.167C390.679 88.167 390.049 88.3217 389.569 88.631C389.089 88.9403 388.849 89.3617 388.849 89.895C388.849 90.2043 388.929 90.4977 389.089 90.775C389.249 91.0417 389.484 91.2657 389.793 91.447C390.103 91.6177 390.465 91.703 390.881 91.703C391.404 91.703 391.889 91.6017 392.337 91.399C392.796 91.1963 393.148 90.935 393.393 90.615Z" fill="#333333"/>
<path d="M397.43 94.935C397.579 94.9457 397.723 94.951 397.862 94.951C398.001 94.9617 398.102 94.9563 398.166 94.935C398.294 94.9137 398.417 94.839 398.534 94.711C398.651 94.583 398.79 94.3377 398.95 93.975C399.11 93.6123 399.334 93.079 399.622 92.375L395.99 84.039H397.142L400.198 91.255L403.014 84.039H404.102L399.782 94.791C399.707 94.9937 399.595 95.1803 399.446 95.351C399.297 95.5323 399.11 95.671 398.886 95.767C398.673 95.8737 398.406 95.9323 398.086 95.943C397.99 95.9537 397.889 95.9537 397.782 95.943C397.686 95.943 397.569 95.9323 397.43 95.911V94.935Z" fill="#333333"/>
<path d="M412.879 92.535C412.271 92.535 411.71 92.423 411.198 92.199C410.697 91.9643 410.255 91.6443 409.871 91.239C409.497 90.8337 409.204 90.3697 408.991 89.847C408.788 89.3243 408.686 88.7697 408.686 88.183C408.686 87.3937 408.863 86.6737 409.215 86.023C409.567 85.3723 410.057 84.855 410.686 84.471C411.316 84.087 412.041 83.895 412.862 83.895C413.641 83.895 414.329 84.0763 414.927 84.439C415.524 84.791 415.966 85.271 416.254 85.879L415.198 86.215C414.964 85.7883 414.633 85.4577 414.207 85.223C413.791 84.9777 413.327 84.855 412.815 84.855C412.26 84.855 411.753 84.999 411.294 85.287C410.836 85.575 410.468 85.9697 410.19 86.471C409.924 86.9723 409.79 87.543 409.79 88.183C409.79 88.8123 409.929 89.383 410.207 89.895C410.484 90.407 410.852 90.8177 411.31 91.127C411.769 91.4257 412.276 91.575 412.831 91.575C413.193 91.575 413.54 91.511 413.871 91.383C414.212 91.255 414.505 91.0843 414.75 90.871C415.006 90.647 415.177 90.407 415.263 90.151L416.335 90.471C416.185 90.8657 415.934 91.223 415.582 91.543C415.241 91.8523 414.836 92.0977 414.366 92.279C413.908 92.4497 413.412 92.535 412.879 92.535Z" fill="#333333"/>
<path d="M421.518 92.535C420.92 92.535 420.366 92.423 419.854 92.199C419.352 91.9643 418.915 91.6497 418.542 91.255C418.179 90.8497 417.896 90.391 417.694 89.879C417.491 89.3563 417.39 88.807 417.39 88.231C417.39 87.6337 417.491 87.079 417.694 86.567C417.896 86.0443 418.184 85.5857 418.558 85.191C418.931 84.7857 419.368 84.471 419.87 84.247C420.382 84.0123 420.936 83.895 421.534 83.895C422.131 83.895 422.68 84.0123 423.182 84.247C423.683 84.471 424.12 84.7857 424.494 85.191C424.867 85.5857 425.155 86.0443 425.358 86.567C425.56 87.079 425.662 87.6337 425.662 88.231C425.662 88.807 425.56 89.3563 425.358 89.879C425.155 90.391 424.867 90.8497 424.494 91.255C424.131 91.6497 423.694 91.9643 423.182 92.199C422.68 92.423 422.126 92.535 421.518 92.535ZM418.494 88.247C418.494 88.8657 418.627 89.431 418.894 89.943C419.171 90.4443 419.539 90.8443 419.998 91.143C420.456 91.431 420.963 91.575 421.518 91.575C422.072 91.575 422.579 91.4257 423.038 91.127C423.496 90.8283 423.864 90.423 424.142 89.911C424.419 89.3883 424.558 88.823 424.558 88.215C424.558 87.5963 424.419 87.031 424.142 86.519C423.864 86.007 423.496 85.6017 423.038 85.303C422.579 85.0043 422.072 84.855 421.518 84.855C420.963 84.855 420.456 85.0097 419.998 85.319C419.55 85.6283 419.187 86.039 418.91 86.551C418.632 87.0523 418.494 87.6177 418.494 88.247Z" fill="#333333"/>
<path d="M434.489 92.375H433.401V87.719C433.401 86.7377 433.257 86.023 432.969 85.575C432.681 85.1163 432.228 84.887 431.609 84.887C431.183 84.887 430.761 84.9937 430.345 85.207C429.929 85.4097 429.561 85.6923 429.241 86.055C428.932 86.407 428.708 86.8123 428.569 87.271V92.375H427.481V84.039H428.473V85.927C428.697 85.5217 428.991 85.1697 429.353 84.871C429.716 84.5617 430.127 84.3217 430.585 84.151C431.044 83.9803 431.519 83.895 432.009 83.895C432.468 83.895 432.857 83.9803 433.177 84.151C433.497 84.3217 433.753 84.567 433.945 84.887C434.137 85.1963 434.276 85.575 434.361 86.023C434.447 86.4603 434.489 86.951 434.489 87.495V92.375Z" fill="#333333"/>
<path d="M439.117 92.375L435.741 84.039H436.878L439.725 91.287L442.59 84.039H443.661L440.285 92.375H439.117Z" fill="#333333"/>
<path d="M448.487 92.535C447.89 92.535 447.335 92.423 446.823 92.199C446.311 91.9643 445.869 91.6497 445.496 91.255C445.122 90.8497 444.829 90.3857 444.616 89.863C444.413 89.3403 444.311 88.7803 444.311 88.183C444.311 87.4043 444.488 86.6897 444.84 86.039C445.202 85.3883 445.698 84.871 446.328 84.487C446.957 84.0923 447.671 83.895 448.471 83.895C449.293 83.895 450.008 84.0923 450.616 84.487C451.234 84.8817 451.72 85.4043 452.072 86.055C452.424 86.695 452.599 87.399 452.599 88.167C452.599 88.2523 452.599 88.3377 452.599 88.423C452.599 88.4977 452.594 88.5563 452.583 88.599H445.448C445.501 89.1963 445.666 89.7297 445.944 90.199C446.232 90.6577 446.599 91.0257 447.047 91.303C447.506 91.5697 448.002 91.703 448.535 91.703C449.079 91.703 449.592 91.5643 450.072 91.287C450.562 91.0097 450.903 90.647 451.095 90.199L452.039 90.455C451.869 90.8497 451.607 91.207 451.255 91.527C450.903 91.847 450.488 92.0977 450.008 92.279C449.538 92.4497 449.031 92.535 448.487 92.535ZM445.415 87.815H451.576C451.533 87.207 451.367 86.6737 451.079 86.215C450.802 85.7563 450.434 85.399 449.975 85.143C449.527 84.8763 449.031 84.743 448.487 84.743C447.943 84.743 447.448 84.8763 447 85.143C446.552 85.399 446.184 85.7617 445.896 86.231C445.618 86.6897 445.458 87.2177 445.415 87.815Z" fill="#333333"/>
<path d="M458.438 84.999C457.713 85.0203 457.073 85.223 456.518 85.607C455.974 85.991 455.59 86.519 455.366 87.191V92.375H454.278V84.039H455.302V86.039C455.59 85.4523 455.969 84.9777 456.438 84.615C456.918 84.2523 457.425 84.0497 457.958 84.007C458.065 83.9963 458.155 83.991 458.23 83.991C458.315 83.991 458.385 83.9963 458.438 84.007V84.999Z" fill="#333333"/>
<path d="M462.624 92.535C461.941 92.535 461.306 92.423 460.72 92.199C460.133 91.975 459.626 91.6337 459.199 91.175L459.647 90.407C460.117 90.8443 460.586 91.1643 461.056 91.367C461.536 91.559 462.042 91.655 462.576 91.655C463.226 91.655 463.754 91.527 464.159 91.271C464.565 91.0043 464.767 90.6257 464.767 90.135C464.767 89.8043 464.666 89.5537 464.464 89.383C464.272 89.2017 463.989 89.0577 463.616 88.951C463.253 88.8337 462.815 88.711 462.303 88.583C461.727 88.423 461.242 88.2577 460.848 88.087C460.464 87.9057 460.17 87.6817 459.967 87.415C459.775 87.1377 459.68 86.7803 459.68 86.343C459.68 85.799 459.813 85.351 460.079 84.999C460.357 84.6363 460.73 84.3643 461.199 84.183C461.679 83.991 462.213 83.895 462.799 83.895C463.439 83.895 464.005 83.9963 464.496 84.199C464.986 84.4017 465.386 84.6843 465.695 85.047L465.168 85.783C464.869 85.4417 464.511 85.191 464.095 85.031C463.69 84.8603 463.237 84.775 462.736 84.775C462.394 84.775 462.069 84.823 461.759 84.919C461.45 85.0043 461.194 85.1537 460.991 85.367C460.799 85.5697 460.703 85.8523 460.703 86.215C460.703 86.5137 460.778 86.7483 460.927 86.919C461.077 87.079 461.301 87.2177 461.599 87.335C461.898 87.4417 462.266 87.559 462.703 87.687C463.333 87.8577 463.882 88.0337 464.352 88.215C464.821 88.3857 465.184 88.6097 465.44 88.887C465.696 89.1643 465.823 89.5537 465.823 90.055C465.823 90.8337 465.53 91.4417 464.944 91.879C464.357 92.3163 463.584 92.535 462.624 92.535Z" fill="#333333"/>
<path d="M467.622 92.375V84.039H468.71V92.375H467.622ZM467.622 82.295V80.695H468.71V82.295H467.622Z" fill="#333333"/>
<path d="M478.114 92.375H477.026V87.719C477.026 86.7377 476.882 86.023 476.594 85.575C476.306 85.1163 475.853 84.887 475.234 84.887C474.808 84.887 474.386 84.9937 473.97 85.207C473.554 85.4097 473.186 85.6923 472.866 86.055C472.557 86.407 472.333 86.8123 472.194 87.271V92.375H471.106V84.039H472.098V85.927C472.322 85.5217 472.616 85.1697 472.978 84.871C473.341 84.5617 473.752 84.3217 474.21 84.151C474.669 83.9803 475.144 83.895 475.634 83.895C476.093 83.895 476.482 83.9803 476.802 84.151C477.122 84.3217 477.378 84.567 477.57 84.887C477.762 85.1963 477.901 85.575 477.986 86.023C478.072 86.4603 478.114 86.951 478.114 87.495V92.375Z" fill="#333333"/>
<path d="M483.778 92.487C483.213 92.487 482.69 92.3697 482.21 92.135C481.73 91.9003 481.314 91.5857 480.962 91.191C480.621 90.7857 480.354 90.327 480.162 89.815C479.97 89.303 479.874 88.775 479.874 88.231C479.874 87.6443 479.965 87.095 480.146 86.583C480.338 86.0603 480.605 85.5963 480.946 85.191C481.298 84.7857 481.709 84.471 482.178 84.247C482.648 84.0123 483.17 83.895 483.746 83.895C484.461 83.895 485.08 84.0763 485.602 84.439C486.136 84.8017 486.584 85.2497 486.946 85.783V84.039H487.922V92.407C487.922 93.175 487.736 93.8203 487.362 94.343C487 94.8763 486.504 95.2763 485.874 95.543C485.256 95.8097 484.578 95.943 483.842 95.943C482.893 95.943 482.125 95.7723 481.538 95.431C480.952 95.0897 480.472 94.631 480.098 94.055L480.77 93.527C481.101 94.0497 481.538 94.439 482.082 94.695C482.637 94.951 483.224 95.079 483.842 95.079C484.386 95.079 484.882 94.9777 485.33 94.775C485.789 94.583 486.152 94.2897 486.418 93.895C486.696 93.5003 486.834 93.0043 486.834 92.407V90.759C486.514 91.2817 486.077 91.703 485.522 92.023C484.968 92.3323 484.386 92.487 483.778 92.487ZM484.082 91.575C484.413 91.575 484.728 91.5163 485.026 91.399C485.336 91.2817 485.618 91.127 485.874 90.935C486.13 90.7323 486.344 90.5083 486.514 90.263C486.685 90.0177 486.792 89.767 486.834 89.511V86.935C486.674 86.5297 486.445 86.1723 486.146 85.863C485.848 85.543 485.506 85.2977 485.122 85.127C484.749 84.9457 484.36 84.855 483.954 84.855C483.485 84.855 483.064 84.9563 482.69 85.159C482.328 85.351 482.018 85.6123 481.762 85.943C481.517 86.263 481.325 86.6257 481.186 87.031C481.048 87.4363 480.978 87.8417 480.978 88.247C480.978 88.695 481.058 89.1217 481.218 89.527C481.378 89.9217 481.597 90.279 481.874 90.599C482.162 90.9083 482.493 91.1483 482.866 91.319C483.25 91.4897 483.656 91.575 484.082 91.575Z" fill="#333333"/>
</svg>
